# Blender 4.3.0
# www.blender.org
mtllib screen.mtl
o Cube
v 0.380501 -0.096828 1.282200
v 0.380501 -0.911316 0.308150
v 0.380501 0.911316 0.858845
v 0.380501 0.431202 1.282200
v 0.380501 -0.096828 -1.282200
v 0.380501 -0.911316 -0.308150
v 0.380501 0.911316 -0.858845
v 0.380501 0.431202 -1.282200
v 0.423217 -0.100088 1.325365
v 0.423217 -0.941637 0.318403
v 0.423217 0.942721 0.888441
v 0.423217 0.445964 1.326095
v 0.423217 -0.100088 -1.325365
v 0.423217 -0.941637 -0.318403
v 0.423217 0.942721 -0.888441
v 0.423217 0.445964 -1.326095
v 0.423217 0.445554 1.324876
v 0.423217 -0.942110 0.318563
v 0.423217 0.941538 0.887327
v 0.423217 -0.100080 1.325261
v 0.423217 0.445554 -1.324876
v 0.423217 0.941538 -0.887327
v 0.423217 -0.942110 -0.318563
v 0.423217 -0.100080 -1.325261
vn 1.0000 -0.0000 -0.0000
vt 0.618559 0.149376
vt 0.993320 0.462746
vt 0.830436 0.850624
vt 0.993320 0.665903
vt 0.169564 0.850624
vt 0.006680 0.665903
vt 0.006680 0.462746
vt 0.381441 0.149376
s 1
usemtl Material.001
f 6/1/1 5/2/1 7/3/1
f 8/4/1 7/3/1 5/2/1
f 7/3/1 3/5/1 6/1/1
f 3/5/1 4/6/1 1/7/1
f 1/7/1 2/8/1 3/5/1
f 2/8/1 6/1/1 3/5/1
l 9 20
l 12 17
l 11 19
l 14 23
l 10 18
l 15 22
l 16 21
l 13 24
