# Blender 4.3.0
# www.blender.org
mtllib visor.mtl
o Cube
v 0.380501 -0.096828 1.282200
v 0.380501 -0.911316 0.308150
v 0.380501 0.911316 0.858845
v 0.380501 0.431202 1.282200
v 0.380501 -0.096828 -1.282200
v 0.380501 -0.911316 -0.308150
v 0.380501 0.911316 -0.858845
v 0.380501 0.431202 -1.282200
v -0.423217 -0.065366 1.250477
v -0.376142 -0.106251 1.406977
v -0.423217 -0.888769 0.265765
v -0.376142 -1.000000 0.338138
v -0.423217 0.888769 0.855810
v -0.376142 1.000000 0.942423
v -0.423217 0.441189 1.250477
v -0.376142 0.473164 1.406977
v -0.423217 -0.065366 -1.250477
v -0.376142 -0.106251 -1.406977
v -0.423217 -0.888769 -0.265765
v -0.376142 -1.000000 -0.338138
v -0.423217 0.888769 -0.855810
v -0.376142 1.000000 -0.942423
v -0.423217 0.441189 -1.250477
v -0.376142 0.473164 -1.406977
v 0.398985 -0.106251 1.406977
v 0.423217 -0.100088 1.325365
v 0.398985 -1.000000 0.338138
v 0.423217 -0.941637 0.318403
v 0.423217 0.942721 0.888441
v 0.398985 1.000000 0.942423
v 0.423217 0.445964 1.326095
v 0.398985 0.473164 1.406977
v 0.423217 -0.100088 -1.325365
v 0.398985 -0.106251 -1.406977
v 0.398985 -1.000000 -0.338138
v 0.423217 -0.941637 -0.318403
v 0.423217 0.942721 -0.888441
v 0.398985 1.000000 -0.942423
v 0.398985 0.473164 -1.406977
v 0.423217 0.445964 -1.326095
v 0.410432 0.431202 1.282200
v 0.410432 -0.911316 0.308150
v 0.410432 0.911316 0.858845
v 0.410432 -0.096828 1.282200
v 0.410432 0.431202 -1.282200
v 0.410432 0.911316 -0.858845
v 0.410432 -0.911316 -0.308150
v 0.410432 -0.096828 -1.282200
vn -0.0000 -0.0000 1.0000
vn -0.0000 1.0000 -0.0000
vn -0.0000 0.6614 0.7501
vn -0.0000 0.7671 0.6415
vn 1.0000 -0.0000 -0.0000
vn -0.0000 -0.7671 0.6415
vn -0.0000 0.7671 -0.6415
vn -0.0000 -0.6614 0.7501
vn -0.0000 -1.0000 -0.0000
vn -0.0000 -0.6614 -0.7501
vn -0.0000 0.6614 -0.7501
vn -0.0000 -0.7671 -0.6415
vn -0.0000 -0.0000 -1.0000
vn -0.9576 -0.0000 0.2880
vn -0.9209 -0.3898 -0.0000
vn -0.9468 0.2128 0.2413
vn -0.9417 -0.2581 0.2158
vn -0.9576 -0.0000 -0.2880
vn -0.9209 0.3898 -0.0000
vn -0.9468 0.2128 -0.2413
vn -0.9417 -0.2581 -0.2158
vn -1.0000 -0.0000 -0.0000
vn 0.9583 -0.0002 0.2858
vn 0.9583 -0.0002 0.2859
vn 0.9555 0.1951 0.2213
vn 0.9555 0.1950 0.2213
vn 0.9555 0.1951 0.2214
vn 0.9210 -0.2990 0.2499
vn 0.9209 -0.2990 0.2500
vn 0.9210 0.3896 -0.0000
vn 0.9583 -0.0002 -0.2859
vn 0.9583 -0.0002 -0.2858
vn 0.9236 -0.3835 -0.0000
vn 0.9209 -0.2991 -0.2500
vn 0.9210 -0.2990 -0.2499
vn 0.9209 -0.2990 -0.2500
vn 0.9555 0.1950 -0.2213
vn 0.9555 0.1951 -0.2213
vn 0.9555 0.1950 -0.2212
vn 0.9582 -0.1892 -0.2146
vn 0.9583 -0.1891 -0.2145
vn 0.9582 -0.1891 -0.2146
vn 0.9262 -0.3771 -0.0000
vn 0.9582 -0.1892 0.2146
vn 0.9583 -0.1891 0.2145
vn 0.9582 -0.1891 0.2146
vn 0.9595 0.0002 0.2817
vn 0.9595 0.0002 0.2819
vn 0.9595 0.0002 0.2818
vn 0.9200 0.3007 0.2514
vn 0.9214 0.3885 -0.0000
vn 0.9200 0.3007 -0.2514
vn 0.9595 0.0002 -0.2817
vn 0.9595 0.0002 -0.2818
vn 0.9555 0.1950 0.2212
vn 0.9582 -0.1892 0.2147
vt 0.486719 0.986096
vt 0.559146 0.757157
vt 0.559146 0.986096
vt 0.875000 0.518313
vt 0.865299 0.518313
vt 0.431195 0.492843
vt 0.508914 0.263904
vt 0.431195 0.263904
vt 0.875000 0.664936
vt 0.865299 0.664936
vt 0.486719 1.000000
vt 0.508914 0.250000
vt 0.632157 0.518313
vt 0.861096 0.664936
vt 0.861096 0.518313
vt 0.431195 0.259701
vt 0.508914 0.259701
vt 0.508914 0.492843
vt 0.431195 0.250000
vt 0.559146 0.990299
vt 0.559146 1.000000
vt 0.813935 0.603577
vt 0.843818 0.536315
vt 0.857327 0.524658
vt 0.494236 0.304033
vt 0.511912 0.267022
vt 0.509414 0.866361
vt 0.459265 0.334211
vt 0.509017 0.269520
vt 0.514135 0.815134
vt 0.486719 0.750000
vt 0.486719 0.904461
vt 0.431195 0.346920
vt 0.508914 0.347472
vt 0.625000 0.660827
vt 0.632157 0.664936
vt 0.486719 0.757157
vt 0.559146 0.903080
vt 0.780415 0.518313
vt 0.486719 0.990299
vt 0.625000 0.522736
vt 0.431195 0.500000
s 1
usemtl Material.001
f 10/1/1 32/2/1 16/3/1
f 6/4/2 42/5/2 47/5/2
f 32/6/3 14/7/3 16/8/3
f 5/9/4 47/5/4 48/10/4
f 6/4/5 5/11/5 7/12/5
f 27/13/6 10/14/6 12/15/6
f 1/9/7 42/5/7 2/4/7
f 7/12/8 45/16/8 46/17/8
f 38/18/2 14/7/2 30/18/2
f 43/17/9 7/12/9 46/17/9
f 3/12/10 41/16/10 4/19/10
f 5/11/1 45/20/1 8/21/1
f 22/7/11 39/6/11 24/8/11
f 18/14/12 35/13/12 20/15/12
f 39/2/13 18/1/13 24/3/13
f 20/15/9 27/13/9 12/15/9
f 16/19/14 9/22/14 10/9/14
f 19/23/15 12/15/15 11/24/15
f 15/25/16 14/7/16 13/26/16
f 9/22/17 12/15/17 10/14/17
f 17/27/18 24/19/18 18/11/18
f 22/7/19 13/26/19 14/7/19
f 22/7/20 23/28/20 21/29/20
f 20/4/21 17/27/21 18/11/21
f 11/24/22 9/22/22 13/26/22
f 31/30/23 25/31/24 26/32/23
f 30/18/25 31/33/26 29/34/27
f 27/13/28 26/35/29 25/36/29
f 37/34/30 30/18/30 29/34/30
f 34/37/31 40/38/32 33/32/32
f 35/13/33 28/39/33 27/13/33
f 33/35/34 35/13/35 34/36/36
f 40/33/37 38/18/38 37/34/39
f 4/21/13 44/40/13 1/11/13
f 41/16/40 29/34/41 31/33/42
f 46/17/43 29/34/43 43/17/43
f 45/16/44 37/34/45 46/17/46
f 45/20/47 33/32/48 40/38/49
f 48/10/50 36/41/50 33/35/50
f 42/5/51 36/39/51 47/5/51
f 44/10/52 28/41/52 42/5/52
f 41/20/53 26/32/54 44/40/54
f 10/1/1 25/37/1 32/2/1
f 6/4/2 2/4/2 42/5/2
f 32/6/3 30/18/3 14/7/3
f 5/9/4 6/4/4 47/5/4
f 8/19/5 7/12/5 5/11/5
f 7/12/5 3/12/5 6/4/5
f 3/12/5 4/21/5 1/9/5
f 1/9/5 2/4/5 3/12/5
f 2/4/5 6/4/5 3/12/5
f 27/13/6 25/36/6 10/14/6
f 1/9/7 44/10/7 42/5/7
f 7/12/8 8/19/8 45/16/8
f 38/18/2 22/7/2 14/7/2
f 43/17/9 3/12/9 7/12/9
f 3/12/10 43/17/10 41/16/10
f 5/11/1 48/40/1 45/20/1
f 22/7/11 38/18/11 39/6/11
f 18/14/12 34/36/12 35/13/12
f 39/2/13 34/37/13 18/1/13
f 20/15/9 35/13/9 27/13/9
f 16/19/14 15/25/14 9/22/14
f 19/23/15 20/15/15 12/15/15
f 15/25/16 16/8/16 14/7/16
f 9/22/17 11/24/17 12/15/17
f 17/27/18 23/28/18 24/19/18
f 22/7/19 21/29/19 13/26/19
f 22/7/20 24/8/20 23/28/20
f 20/4/21 19/23/21 17/27/21
f 9/22/22 15/25/22 13/26/22
f 13/26/22 21/29/22 19/23/22
f 21/29/22 23/28/22 17/27/22
f 19/23/22 21/29/22 17/27/22
f 19/23/22 11/24/22 13/26/22
f 31/30/23 32/42/24 25/31/24
f 30/18/25 32/6/55 31/33/26
f 27/13/28 28/41/29 26/35/29
f 37/34/30 38/18/30 30/18/30
f 34/37/31 39/2/31 40/38/32
f 35/13/33 36/39/33 28/39/33
f 33/35/34 36/41/36 35/13/35
f 40/33/37 39/6/39 38/18/38
f 4/21/13 41/20/13 44/40/13
f 41/16/40 43/17/41 29/34/41
f 46/17/43 37/34/43 29/34/43
f 45/16/44 40/33/56 37/34/45
f 45/20/47 48/40/49 33/32/48
f 48/10/50 47/5/50 36/41/50
f 42/5/51 28/39/51 36/39/51
f 44/10/52 26/35/52 28/41/52
f 41/20/53 31/30/54 26/32/54
